<svg width="128" height="56" viewBox="0 0 128 56" fill="none" xmlns="http://www.w3.org/2000/svg">
<rect width="128" height="56" rx="12" fill="white"/>
<g clip-path="url(#clip0_2_94)">
<path d="M24.7774 38.6406C19.0728 38.6406 14.998 34.5052 14.998 27.807C14.998 21.1088 19.0437 16.9734 24.7774 16.9734C29.085 16.9734 32.8687 19.2449 33.8583 24.3123H30.7149C29.8709 21.0214 27.4551 19.74 24.7774 19.74C20.8191 19.74 18.2287 22.7397 18.2287 27.807C18.2287 32.8743 20.8191 35.8739 24.7774 35.8739C27.6006 35.8739 30.3656 34.1848 30.8604 30.5154H33.9747C33.3926 35.9613 29.2596 38.6406 24.7774 38.6406Z" fill="black"/>
<path d="M45.5562 38.6406C39.4441 38.6406 35.4275 34.2722 35.4275 27.807C35.4275 21.3418 39.4441 16.9734 45.5562 16.9734C51.6393 16.9734 55.6558 21.3418 55.6558 27.807C55.6558 34.2722 51.6393 38.6406 45.5562 38.6406ZM45.5562 35.8448C49.6891 35.8448 52.4251 32.7578 52.4251 27.807C52.4251 22.8561 49.6891 19.7691 45.5562 19.7691C41.3941 19.7691 38.6582 22.8561 38.6582 27.807C38.6582 32.7578 41.3941 35.8448 45.5562 35.8448Z" fill="black"/>
<path d="M65.1962 17.4393C71.6867 17.4393 75.4704 21.4 75.4704 27.807C75.4704 34.2139 71.6867 38.1746 65.1962 38.1746H57.8035V17.4393H65.1962ZM65.1671 35.4371C69.7367 35.4371 72.2106 32.6413 72.2106 27.807C72.2106 22.9726 69.7367 20.1769 65.1671 20.1769H60.9178V35.4371H65.1671Z" fill="black"/>
<path d="M92.4148 20.2351H80.7435V26.0887H91.3088V28.8263H80.7435V35.3788H92.3275V38.1746H77.6292V17.4393H92.4148V20.2351Z" fill="black"/>
<path d="M104.666 27.4866L112 38.1746H108.391L105.684 34.1848C104.695 32.7578 103.734 31.3599 102.803 29.9329C101.872 31.3599 100.911 32.7578 99.9214 34.1848L97.1564 38.1746H93.6638L101.057 27.574L94.0713 17.4393H97.6803L100.183 21.1088C101.086 22.4775 101.988 23.8172 102.861 25.1568C103.763 23.7881 104.666 22.4484 105.597 21.0797L108.129 17.4393H111.593L104.666 27.4866Z" fill="black"/>
</g>
<defs>
<clipPath id="clip0_2_94">
<rect width="97" height="23" fill="white" transform="translate(15 16)"/>
</clipPath>
</defs>
</svg>
